<svg xmlns="http://www.w3.org/2000/svg" viewBox="0 0 100 100">
  <defs>
    <linearGradient id="brandGrad" x1="0%" y1="0%" x2="0%" y2="100%">
      <stop offset="0%" style="stop-color:#f59e0b;stop-opacity:1" />
      <stop offset="100%" style="stop-color:#ea580c;stop-opacity:1" />
    </linearGradient>
  </defs>
  <rect width="100" height="100" rx="20" fill="url(#brandGrad)"/>
  <g fill="none" stroke="#1a1a1a" stroke-width="4" stroke-linecap="round" stroke-linejoin="round">
    <path d="M50 8 L50 18"/>
    <path d="M32 32 Q40 14 50 14 Q60 14 68 32"/>
    <path d="M30 32 L70 32"/>
    <path d="M28 40 Q28 72 50 84 Q72 72 72 40"/>
    <path d="M38 52 Q42 56 46 52"/>
    <path d="M54 52 Q58 56 62 52"/>
    <path d="M42 68 Q50 74 58 68"/>
    <path d="M76 50 Q86 50 86 60 Q86 72 76 72"/>
  </g>
  <circle cx="50" cy="40" r="2.5" fill="#1a1a1a"/>
</svg>
